<svg viewBox="0 0 512 512" xmlns="http://www.w3.org/2000/svg"><path d="m272 185.6875v242.167969c-8.777344-3.730469-18.992188-5.855469-30-5.855469-33.644531 0-60 19.765625-60 45s26.355469 45 60 45 60-19.765625 60-45v-198.6875l180-51.425781v150.96875c-8.777344-3.730469-18.992188-5.855469-30-5.855469-33.644531 0-60 19.765625-60 45s26.355469 45 60 45 60-19.765625 60-45v-289.886719zm-30 296.3125c-18.3125 0-30-8.882812-30-15s11.6875-15 30-15 30 8.882812 30 15-11.6875 15-30 15zm60-244.886719v-28.800781l180-51.425781v28.796875zm150 184.886719c-18.3125 0-30-8.882812-30-15s11.6875-15 30-15 30 8.882812 30 15-11.6875 15-30 15zm0 0"/><path d="m240 165v-30c0-74.4375-60.5625-135-135-135h-15v248.070312c-8.832031-5.121093-19.074219-8.070312-30-8.070312-33.085938 0-60 26.914062-60 60s26.914062 60 60 60 60-26.914062 60-60v-268.933594c50.816406 7.300782 90 51.128906 90 103.933594v30c0 8.269531-6.730469 15-15 15s-15-6.730469-15-15v-30h-30v30c0 24.8125 20.1875 45 45 45s45-20.1875 45-45zm-180 165c-16.542969 0-30-13.457031-30-30s13.457031-30 30-30 30 13.457031 30 30-13.457031 30-30 30zm0 0"/></svg>